<svg width="557" height="129" viewBox="0 0 557 129" fill="none" xmlns="http://www.w3.org/2000/svg">
<path d="M127.73 20.95C127.99 21.1233 128.12 21.3833 128.12 21.73C128.12 21.99 127.86 22.38 127.34 22.9C124.48 26.02 121.923 29.6167 119.67 33.69C117.417 37.6767 115.51 42.0533 113.95 46.82C112.39 51.5867 111.177 56.6133 110.31 61.9C109.443 67.1867 109.01 72.6033 109.01 78.15C109.01 82.31 109.487 85.56 110.44 87.9C111.48 90.1533 113.257 91.28 115.77 91.28C119.237 91.28 122.53 88.8533 125.65 84C125.91 83.8267 126.17 83.8267 126.43 84C126.69 84.1733 126.777 84.4333 126.69 84.78C124.437 88.42 121.923 91.3667 119.15 93.62C116.463 95.8733 113.95 97 111.61 97C108.143 97 105.5 95.6567 103.68 92.97C101.947 90.2833 101.08 86.47 101.08 81.53C101.08 74.5967 101.86 67.5333 103.42 60.34C99.3467 60.34 95.3167 60.3833 91.33 60.47C87.43 60.5567 83.6167 60.6867 79.89 60.86C77.03 63.8933 74.2567 66.7533 71.57 69.44C68.97 72.1267 66.4133 74.5967 63.9 76.85C56.9667 83.1767 49.8167 88.1167 42.45 91.67C35.17 95.2233 27.1533 97 18.4 97C13.72 97 9.95 95.96 7.09 93.88C4.31667 91.8 2.45333 89.1567 1.5 85.95C0.633334 82.7433 0.676667 79.2333 1.63 75.42C2.58333 71.6067 4.49 67.9233 7.35 64.37C7.61 64.1967 7.91333 64.24 8.26 64.5C8.60667 64.6733 8.73667 65.0633 8.65 65.67C6.65667 67.8367 5.53 70.35 5.27 73.21C5.09667 75.9833 5.70333 78.6267 7.09 81.14C8.56333 83.5667 10.8167 85.6467 13.85 87.38C16.8833 89.0267 20.6967 89.85 25.29 89.85C32.6567 89.85 39.5467 88.3333 45.96 85.3C52.46 82.2667 58.57 78.15 64.29 72.95C66.2833 71.2167 68.2767 69.3533 70.27 67.36C72.2633 65.3667 74.3433 63.2867 76.51 61.12C73.4767 61.2933 70.6167 61.51 67.93 61.77C65.2433 61.9433 62.73 62.2033 60.39 62.55C59.9567 62.4633 59.87 62.2467 60.13 61.9C60.39 61.5533 60.78 61.2067 61.3 60.86C61.82 60.4267 62.4267 60.08 63.12 59.82C63.9 59.4733 64.6367 59.2567 65.33 59.17C66.4567 59.0833 68.19 59.04 70.53 59.04C72.9567 58.9533 75.6867 58.8667 78.72 58.78C83.5733 53.7533 88.9467 48.3367 94.84 42.53C100.82 36.6367 107.883 30.4833 116.03 24.07C110.223 22.1633 104.2 20.6033 97.96 19.39C91.8067 18.09 85.87 17.44 80.15 17.44C73.65 17.44 68.32 19.26 64.16 22.9C60 26.4533 57.4433 32.0867 56.49 39.8C56.3167 40.2333 56.0567 40.4067 55.71 40.32C55.45 40.2333 55.2767 39.9733 55.19 39.54C56.23 31.0467 59.3933 24.5467 64.68 20.04C69.9667 15.5333 76.8133 13.28 85.22 13.28C88.7733 13.28 92.5 13.54 96.4 14.06C100.3 14.4933 104.113 15.1 107.84 15.88C111.653 16.5733 115.25 17.3967 118.63 18.35C122.097 19.2167 125.13 20.0833 127.73 20.95ZM103.81 58.65C105.197 52.41 107.147 46.3433 109.66 40.45C112.173 34.5567 115.25 29.14 118.89 24.2C111.263 30.3533 104.46 36.3333 98.48 42.14C92.5 47.9467 86.9967 53.4933 81.97 58.78C86.13 58.6933 90.2033 58.65 94.19 58.65C98.2633 58.65 101.47 58.65 103.81 58.65ZM154.334 67.49C154.334 68.79 154.204 70.2633 153.944 71.91C153.684 73.5567 153.338 75.2467 152.904 76.98C154.638 72.82 156.544 69.57 158.624 67.23C160.704 64.89 162.958 63.72 165.384 63.72C166.684 63.72 167.681 64.0233 168.374 64.63C169.068 65.2367 169.414 66.0167 169.414 66.97C169.414 67.8367 169.068 68.9633 168.374 70.35C167.768 71.7367 167.248 72.69 166.814 73.21C166.641 73.2967 166.468 73.2967 166.294 73.21C166.121 73.0367 166.034 72.8633 166.034 72.69C166.034 72.0833 165.774 71.5633 165.254 71.13C164.821 70.6967 164.128 70.48 163.174 70.48C160.141 70.48 157.368 72.56 154.854 76.72C152.428 80.7933 150.174 86.6867 148.094 94.4C148.008 94.8333 147.704 95.2233 147.184 95.57C146.664 95.83 146.058 96.09 145.364 96.35C144.758 96.5233 144.108 96.6967 143.414 96.87C142.721 96.9567 142.114 97 141.594 97C140.641 97 140.381 96.48 140.814 95.44C141.594 93.62 142.331 91.67 143.024 89.59C143.804 87.4233 144.498 85.2567 145.104 83.09C145.711 80.9233 146.231 78.8433 146.664 76.85C147.098 74.77 147.444 72.8633 147.704 71.13C147.878 69.83 147.921 68.8333 147.834 68.14C147.834 67.4467 147.488 67.1 146.794 67.1C145.928 67.1 145.018 67.49 144.064 68.27C143.198 68.9633 142.374 69.8733 141.594 71C141.248 71.26 140.901 71.3033 140.554 71.13C140.294 70.87 140.251 70.5667 140.424 70.22C140.944 69.5267 141.551 68.8333 142.244 68.14C143.024 67.36 143.848 66.6667 144.714 66.06C145.668 65.3667 146.621 64.8033 147.574 64.37C148.614 63.9367 149.654 63.72 150.694 63.72C152.081 63.72 153.034 64.0667 153.554 64.76C154.074 65.3667 154.334 66.2767 154.334 67.49ZM202.813 64.37C203.246 64.5433 203.42 64.8033 203.333 65.15C203.246 65.41 202.856 65.6267 202.163 65.8C200.863 65.8 199.346 65.8433 197.613 65.93C195.966 66.0167 194.19 66.1467 192.283 66.32C190.55 70.5667 189.12 74.7267 187.993 78.8C186.866 82.7867 186.303 86.0367 186.303 88.55C186.303 91.4967 187.43 92.97 189.683 92.97C191.936 92.97 194.45 91.02 197.223 87.12C197.483 86.9467 197.7 86.9467 197.873 87.12C198.133 87.2933 198.22 87.5967 198.133 88.03C196.66 90.4567 194.796 92.58 192.543 94.4C190.29 96.1333 188.08 97 185.913 97C183.66 97 181.97 96.48 180.843 95.44C179.803 94.3133 179.283 92.7967 179.283 90.89C179.283 88.3767 179.89 84.91 181.103 80.49C182.316 76.07 183.876 71.5633 185.783 66.97C183.53 67.23 181.45 67.5767 179.543 68.01C179.11 67.9233 178.98 67.7067 179.153 67.36C179.413 67.0133 179.803 66.6667 180.323 66.32C180.93 65.8867 181.623 65.54 182.403 65.28C183.183 64.9333 183.92 64.76 184.613 64.76C184.96 64.76 185.306 64.76 185.653 64.76C186 64.76 186.346 64.7167 186.693 64.63C187.82 62.1167 188.99 59.69 190.203 57.35C191.416 55.01 192.63 52.8867 193.843 50.98C194.363 50.3733 195.056 49.8533 195.923 49.42C196.876 48.9 197.786 48.51 198.653 48.25C199.52 47.99 200.213 47.86 200.733 47.86C201.34 47.7733 201.6 47.9033 201.513 48.25C200.04 50.5033 198.566 53.0167 197.093 55.79C195.706 58.5633 194.363 61.4667 193.063 64.5C194.71 64.4133 196.356 64.37 198.003 64.37C199.736 64.37 201.34 64.37 202.813 64.37ZM312.002 18.35C306.109 18.35 300.692 19.6067 295.752 22.12C290.899 24.5467 286.695 27.9267 283.142 32.26C279.675 36.5067 276.945 41.5333 274.952 47.34C273.045 53.06 272.092 59.2567 272.092 65.93C272.092 71.8233 273.132 76.2867 275.212 79.32C277.379 82.3533 280.672 83.87 285.092 83.87C290.205 83.87 294.625 82.4833 298.352 79.71C302.079 76.85 304.679 72.82 306.152 67.62C306.325 66.9267 306.889 66.3633 307.842 65.93C308.795 65.41 309.792 65.0633 310.832 64.89C311.872 64.7167 312.825 64.7167 313.692 64.89C314.559 64.9767 314.992 65.28 314.992 65.8C312.219 75.5933 308.925 84 305.112 91.02C301.299 98.04 297.009 103.76 292.242 108.18C287.475 112.687 282.275 115.98 276.642 118.06C271.009 120.14 265.029 121.18 258.702 121.18C250.122 121.18 243.579 119.403 239.072 115.85C234.652 112.297 232.442 107.487 232.442 101.42C232.442 97.78 233.569 94.4 235.822 91.28C238.075 88.16 241.542 85.7333 246.222 84C246.655 83.8267 246.915 84 247.002 84.52C247.089 84.9533 246.959 85.3433 246.612 85.69C244.532 86.9033 242.972 88.5067 241.932 90.5C240.979 92.4067 240.502 95.0067 240.502 98.3C240.502 104.8 242.365 109.827 246.092 113.38C249.905 117.02 255.235 118.84 262.082 118.84C266.762 118.84 271.095 118.103 275.082 116.63C279.069 115.243 282.752 112.947 286.132 109.74C289.512 106.62 292.589 102.46 295.362 97.26C298.135 92.1467 300.692 85.8633 303.032 78.41C300.345 80.6633 297.269 82.57 293.802 84.13C290.422 85.6033 286.652 86.34 282.492 86.34C269.665 86.34 263.252 80.5333 263.252 68.92C263.252 64.9333 263.902 60.8167 265.202 56.57C266.589 52.2367 268.495 48.0333 270.922 43.96C273.349 39.8 276.252 35.9 279.632 32.26C283.012 28.5333 286.695 25.2833 290.682 22.51C294.755 19.7367 299.089 17.5267 303.682 15.88C308.275 14.2333 313.042 13.41 317.982 13.41C322.142 13.41 325.479 14.32 327.992 16.14C330.505 17.96 331.762 20.2567 331.762 23.03C331.762 23.9833 331.459 25.11 330.852 26.41C330.245 27.71 329.465 29.0533 328.512 30.44C327.645 31.74 326.735 33.04 325.782 34.34C324.829 35.5533 324.049 36.6367 323.442 37.59C323.182 37.7633 322.879 37.7633 322.532 37.59C322.185 37.33 322.055 37.0267 322.142 36.68C323.355 34.7733 324.222 33.0833 324.742 31.61C325.349 30.1367 325.652 28.5333 325.652 26.8C325.652 24.3733 324.525 22.38 322.272 20.82C320.105 19.1733 316.682 18.35 312.002 18.35ZM365.868 88.81C366.041 88.6367 366.258 88.6367 366.518 88.81C366.778 88.9833 366.864 89.2433 366.778 89.59C365.218 91.8433 363.484 93.6633 361.578 95.05C359.671 96.35 357.851 97 356.118 97C354.124 97 352.824 95.6133 352.218 92.84C351.698 89.98 352.001 86.6 353.128 82.7C350.788 86.4267 348.231 89.6333 345.458 92.32C342.771 94.92 339.911 96.48 336.878 97C334.798 97 333.194 96.0467 332.068 94.14C330.941 92.2333 330.378 90.0233 330.378 87.51C330.378 84.65 331.071 81.8333 332.458 79.06C333.844 76.2 335.664 73.6433 337.918 71.39C340.258 69.1367 342.814 67.3167 345.588 65.93C348.448 64.4567 351.308 63.72 354.168 63.72C357.201 63.72 359.584 64.4567 361.318 65.93C362.184 65.3233 363.268 64.8033 364.568 64.37C365.954 63.9367 367.168 63.72 368.208 63.72C368.554 63.72 368.728 63.9367 368.728 64.37C366.734 66.7967 365.001 69.4833 363.528 72.43C362.141 75.29 361.058 78.0633 360.278 80.75C359.498 83.35 359.021 85.69 358.848 87.77C358.674 89.85 358.848 91.28 359.368 92.06C359.801 92.58 360.538 92.7533 361.578 92.58C362.618 92.32 364.048 91.0633 365.868 88.81ZM340.908 92.19C341.948 92.19 343.204 91.54 344.678 90.24C346.238 88.94 347.841 87.2067 349.488 85.04C351.134 82.8733 352.738 80.4467 354.298 77.76C355.944 75.0733 357.374 72.3433 358.588 69.57C358.241 68.4433 357.418 67.5333 356.118 66.84C354.904 66.1467 353.474 65.8 351.828 65.8C349.834 65.8 347.971 66.32 346.238 67.36C344.504 68.3133 342.988 69.7 341.688 71.52C340.474 73.2533 339.478 75.3767 338.698 77.89C338.004 80.3167 337.658 83.0033 337.658 85.95C337.658 87.8567 337.961 89.3733 338.568 90.5C339.261 91.6267 340.041 92.19 340.908 92.19ZM438.167 0.409996C439.467 0.409996 440.507 0.756663 441.287 1.45C442.154 2.05666 442.717 2.92333 442.977 4.05C443.324 5.09 443.367 6.30333 443.107 7.69C442.934 9.07666 442.457 10.4633 441.677 11.85C441.504 12.0233 441.287 12.0233 441.027 11.85C440.767 11.6767 440.594 11.46 440.507 11.2C440.68 10.16 440.29 9.29333 439.337 8.6C438.47 7.90666 437.084 7.56 435.177 7.56C431.624 7.56 428.027 8.90333 424.387 11.59C420.834 14.19 417.367 17.6567 413.987 21.99C410.607 26.3233 407.444 31.3067 404.497 36.94C401.55 42.5733 398.994 48.38 396.827 54.36C394.66 60.34 392.927 66.2767 391.627 72.17C390.414 78.0633 389.807 83.4367 389.807 88.29C389.807 90.89 390.544 92.19 392.017 92.19C393.057 92.19 394.054 91.7567 395.007 90.89C396.047 90.0233 397.217 88.7233 398.517 86.99C398.777 86.8167 398.994 86.86 399.167 87.12C399.427 87.2933 399.514 87.5533 399.427 87.9C397.694 90.5 395.657 92.6667 393.317 94.4C390.977 96.1333 388.854 97 386.947 97C385.3 97 384.13 96.5233 383.437 95.57C382.83 94.6167 382.527 93.4033 382.527 91.93C382.527 87.8567 383.394 82.7867 385.127 76.72C386.86 70.5667 389.157 64.11 392.017 57.35C394.964 50.5033 398.344 43.7 402.157 36.94C405.97 30.18 409.914 24.1133 413.987 18.74C418.147 13.28 422.307 8.86 426.467 5.47999C430.627 2.09999 434.527 0.409996 438.167 0.409996ZM467.468 0.409996C468.768 0.409996 469.808 0.756663 470.588 1.45C471.454 2.05666 472.018 2.92333 472.278 4.05C472.624 5.09 472.668 6.30333 472.408 7.69C472.234 9.07666 471.758 10.4633 470.978 11.85C470.804 12.0233 470.588 12.0233 470.328 11.85C470.068 11.6767 469.894 11.46 469.808 11.2C469.981 10.16 469.591 9.29333 468.638 8.6C467.771 7.90666 466.384 7.56 464.478 7.56C460.924 7.56 457.328 8.90333 453.688 11.59C450.134 14.19 446.668 17.6567 443.288 21.99C439.908 26.3233 436.744 31.3067 433.798 36.94C430.851 42.5733 428.294 48.38 426.128 54.36C423.961 60.34 422.228 66.2767 420.928 72.17C419.714 78.0633 419.108 83.4367 419.108 88.29C419.108 90.89 419.844 92.19 421.318 92.19C422.358 92.19 423.354 91.7567 424.308 90.89C425.348 90.0233 426.518 88.7233 427.818 86.99C428.078 86.8167 428.294 86.86 428.468 87.12C428.728 87.2933 428.814 87.5533 428.728 87.9C426.994 90.5 424.958 92.6667 422.618 94.4C420.278 96.1333 418.154 97 416.248 97C414.601 97 413.431 96.5233 412.738 95.57C412.131 94.6167 411.828 93.4033 411.828 91.93C411.828 87.8567 412.694 82.7867 414.428 76.72C416.161 70.5667 418.458 64.11 421.318 57.35C424.264 50.5033 427.644 43.7 431.458 36.94C435.271 30.18 439.214 24.1133 443.288 18.74C447.448 13.28 451.608 8.86 455.768 5.47999C459.928 2.09999 463.828 0.409996 467.468 0.409996ZM468.039 70.22C468.039 75.16 461.495 78.54 448.409 80.36C448.322 81.2267 448.235 82.0933 448.149 82.96C448.149 83.8267 448.149 84.7367 448.149 85.69C448.149 87.9433 448.669 89.6767 449.709 90.89C450.749 92.1033 452.395 92.71 454.649 92.71C456.295 92.71 457.985 92.2333 459.719 91.28C461.452 90.3267 462.839 89.1133 463.879 87.64C464.225 87.4667 464.485 87.5533 464.659 87.9C464.832 88.16 464.875 88.4633 464.789 88.81C463.055 91.0633 460.845 93.0133 458.159 94.66C455.559 96.22 452.742 97 449.709 97C446.675 97 444.465 96.2633 443.079 94.79C441.779 93.23 441.129 91.0633 441.129 88.29C441.129 85.6033 441.692 82.83 442.819 79.97C443.945 77.0233 445.375 74.3367 447.109 71.91C448.929 69.4833 450.965 67.5333 453.219 66.06C455.559 64.5 457.899 63.72 460.239 63.72C462.579 63.72 464.442 64.4133 465.829 65.8C467.302 67.1 468.039 68.5733 468.039 70.22ZM456.729 67.1C454.735 67.1 453.002 68.0533 451.529 69.96C450.142 71.78 449.189 74.64 448.669 78.54C452.829 78.1067 455.905 77.3267 457.899 76.2C459.892 74.9867 460.889 73.5133 460.889 71.78C460.889 70.48 460.499 69.3967 459.719 68.53C458.939 67.5767 457.942 67.1 456.729 67.1ZM495.508 67.49C495.508 68.79 495.378 70.2633 495.118 71.91C494.858 73.5567 494.511 75.2467 494.078 76.98C495.811 72.82 497.718 69.57 499.798 67.23C501.878 64.89 504.131 63.72 506.558 63.72C507.858 63.72 508.855 64.0233 509.548 64.63C510.241 65.2367 510.588 66.0167 510.588 66.97C510.588 67.8367 510.241 68.9633 509.548 70.35C508.941 71.7367 508.421 72.69 507.988 73.21C507.815 73.2967 507.641 73.2967 507.468 73.21C507.295 73.0367 507.208 72.8633 507.208 72.69C507.208 72.0833 506.948 71.5633 506.428 71.13C505.995 70.6967 505.301 70.48 504.348 70.48C501.315 70.48 498.541 72.56 496.028 76.72C493.601 80.7933 491.348 86.6867 489.268 94.4C489.181 94.8333 488.878 95.2233 488.358 95.57C487.838 95.83 487.231 96.09 486.538 96.35C485.931 96.5233 485.281 96.6967 484.588 96.87C483.895 96.9567 483.288 97 482.768 97C481.815 97 481.555 96.48 481.988 95.44C482.768 93.62 483.505 91.67 484.198 89.59C484.978 87.4233 485.671 85.2567 486.278 83.09C486.885 80.9233 487.405 78.8433 487.838 76.85C488.271 74.77 488.618 72.8633 488.878 71.13C489.051 69.83 489.095 68.8333 489.008 68.14C489.008 67.4467 488.661 67.1 487.968 67.1C487.101 67.1 486.191 67.49 485.238 68.27C484.371 68.9633 483.548 69.8733 482.768 71C482.421 71.26 482.075 71.3033 481.728 71.13C481.468 70.87 481.425 70.5667 481.598 70.22C482.118 69.5267 482.725 68.8333 483.418 68.14C484.198 67.36 485.021 66.6667 485.888 66.06C486.841 65.3667 487.795 64.8033 488.748 64.37C489.788 63.9367 490.828 63.72 491.868 63.72C493.255 63.72 494.208 64.0667 494.728 64.76C495.248 65.3667 495.508 66.2767 495.508 67.49ZM548.537 67.49C548.884 66.6233 549.837 65.8 551.397 65.02C552.957 64.1533 554.344 63.72 555.557 63.72C556.337 63.72 556.64 64.0233 556.467 64.63C554.56 70.0033 552.654 75.2467 550.747 80.36C548.927 85.3867 547.02 90.5867 545.027 95.96C540.694 107.14 535.277 115.373 528.777 120.66C522.364 125.947 515.517 128.59 508.237 128.59C503.21 128.59 499.267 127.42 496.407 125.08C493.547 122.74 492.117 119.923 492.117 116.63C492.117 114.723 492.767 112.86 494.067 111.04C495.367 109.22 497.144 107.92 499.397 107.14C499.744 107.053 500.004 107.14 500.177 107.4C500.35 107.66 500.35 107.92 500.177 108.18C498.79 109.653 498.097 111.517 498.097 113.77C498.097 117.41 499.224 120.357 501.477 122.61C503.73 124.863 506.98 125.99 511.227 125.99C514.26 125.99 517.034 125.513 519.547 124.56C522.06 123.607 524.4 121.917 526.567 119.49C528.82 117.063 530.987 113.813 533.067 109.74C535.147 105.667 537.27 100.553 539.437 94.4C540.477 91.54 541.387 88.9833 542.167 86.73C543.034 84.4767 543.9 82.0067 544.767 79.32C543.12 81.92 541.43 84.3033 539.697 86.47C537.964 88.6367 536.187 90.5 534.367 92.06C532.634 93.62 530.944 94.8333 529.297 95.7C527.65 96.5667 526.134 97 524.747 97C523.014 97 521.757 96.48 520.977 95.44C520.197 94.4 519.807 92.97 519.807 91.15C519.807 88.1167 520.414 84.65 521.627 80.75C522.927 76.7633 524.66 72.95 526.827 69.31C525.874 69.9167 525.007 70.48 524.227 71C523.447 71.52 522.71 72.1267 522.017 72.82C521.757 72.9933 521.497 72.95 521.237 72.69C521.064 72.3433 521.064 72.04 521.237 71.78C521.844 71.1733 522.667 70.5233 523.707 69.83C524.747 69.05 525.874 68.3133 527.087 67.62C528.3 66.9267 529.514 66.2333 530.727 65.54C532.027 64.8467 533.284 64.24 534.497 63.72C535.364 63.72 535.71 64.11 535.537 64.89C534.15 66.6233 532.894 68.5733 531.767 70.74C530.727 72.82 529.817 74.9433 529.037 77.11C528.257 79.19 527.65 81.27 527.217 83.35C526.87 85.43 526.697 87.2933 526.697 88.94C526.697 91.3667 527.477 92.58 529.037 92.58C530.424 92.58 532.07 91.7133 533.977 89.98C535.884 88.2467 537.747 86.1233 539.567 83.61C541.474 81.01 543.207 78.28 544.767 75.42C546.414 72.4733 547.67 69.83 548.537 67.49Z" fill="#C47344"/>
</svg>
